<svg width="120" height="120" viewBox="0 0 120 120" fill="none" xmlns="http://www.w3.org/2000/svg">
<rect width="120" height="120" rx="60" fill="#ADD131"/>
<path d="M61.7678 33.2322C60.7915 32.2559 59.2085 32.2559 58.2322 33.2322L42.3223 49.1421C41.346 50.1184 41.346 51.7014 42.3223 52.6777C43.2986 53.654 44.8816 53.654 45.8579 52.6777L60 38.5355L74.1421 52.6777C75.1184 53.654 76.7014 53.654 77.6777 52.6777C78.654 51.7014 78.654 50.1184 77.6777 49.1421L61.7678 33.2322ZM57.5 85C57.5 86.3807 58.6193 87.5 60 87.5C61.3807 87.5 62.5 86.3807 62.5 85H57.5ZM60 35H57.5V85H60H62.5V35H60Z" fill="white"/>
</svg>
