<svg width="30" height="30" viewBox="0 0 30 30" fill="none" xmlns="http://www.w3.org/2000/svg">
<path d="M12.6 25.2818C8.4852 26.6702 5.0568 25.2818 3 21.0002" stroke="white" stroke-width="2" stroke-linecap="round" stroke-linejoin="round"/>
<path d="M12.6001 27.0004V23.11C12.6001 22.3924 12.8209 21.7684 13.1761 21.2044C13.4209 20.818 13.2529 20.2684 12.8125 20.1484C9.1609 19.1428 6.6001 17.5288 6.6001 12.1744C6.6001 10.7824 7.0561 9.47438 7.8577 8.33438C8.0569 8.05118 8.1577 7.90958 8.1817 7.78238C8.2057 7.65278 8.1637 7.48598 8.0797 7.14998C7.7401 5.78677 7.7629 4.33837 8.2717 3.03397C8.2717 3.03397 9.3241 2.68957 11.7205 4.18597C12.2677 4.52797 12.5413 4.69957 12.7825 4.73797C13.0237 4.77637 13.3453 4.69597 13.9885 4.53517C14.9081 4.30717 15.8526 4.1947 16.8001 4.20037C17.7475 4.19633 18.6919 4.30918 19.6117 4.53637C20.2549 4.69717 20.5777 4.77637 20.8189 4.73917C21.0589 4.70077 21.3325 4.52917 21.8797 4.18717C24.2761 2.69077 25.3285 3.03517 25.3285 3.03517C25.8373 4.33957 25.8601 5.78797 25.5205 7.15117C25.4365 7.48718 25.3957 7.65518 25.4197 7.78238C25.4437 7.90958 25.5433 8.05238 25.7425 8.33558C26.5441 9.47558 27.0001 10.7836 27.0001 12.1756C27.0001 17.53 24.4393 19.144 20.7877 20.1472C20.3473 20.2684 20.1793 20.818 20.4241 21.2032C20.7793 21.7672 21.0001 22.3912 21.0001 23.11V27.0004" stroke="white" stroke-width="2" stroke-linecap="round" stroke-linejoin="round"/>
</svg>
