<svg width="30" height="30" viewBox="0 0 30 30" fill="none" xmlns="http://www.w3.org/2000/svg">
<path fill-rule="evenodd" clip-rule="evenodd" d="M2 15C2 16.7072 2.33625 18.3977 2.98957 19.9749C3.64288 21.5521 4.60045 22.9852 5.80761 24.1924C7.01477 25.3996 8.44788 26.3571 10.0251 27.0104C11.6023 27.6637 13.2928 28 15 28C16.7072 28 18.3977 27.6637 19.9749 27.0104C21.5521 26.3571 22.9852 25.3996 24.1924 24.1924C25.3996 22.9852 26.3571 21.5521 27.0104 19.9749C27.6637 18.3977 28 16.7072 28 15C28 11.5522 26.6304 8.24558 24.1924 5.80761C21.7544 3.36964 18.4478 2 15 2C11.5522 2 8.24558 3.36964 5.80761 5.80761C3.36964 8.24558 2 11.5522 2 15ZM26.4706 15C26.4706 18.0422 25.2621 20.9598 23.1109 23.1109C20.9598 25.2621 18.0422 26.4706 15 26.4706C11.9578 26.4706 9.04022 25.2621 6.88907 23.1109C4.73792 20.9598 3.52941 18.0422 3.52941 15C3.52941 11.9578 4.73792 9.04022 6.88907 6.88907C9.04022 4.73792 11.9578 3.52941 15 3.52941C18.0422 3.52941 20.9598 4.73792 23.1109 6.88907C25.2621 9.04022 26.4706 11.9578 26.4706 15Z" fill="white"/>
<path fill-rule="evenodd" clip-rule="evenodd" d="M9.64697 14.9999C9.64697 21.7232 11.8524 27.2352 14.9999 27.2352C18.1474 27.2352 20.3529 21.7232 20.3529 14.9999C20.3529 8.27665 18.1474 2.76465 14.9999 2.76465C11.8524 2.76465 9.64697 8.27665 9.64697 14.9999ZM18.8234 14.9999C18.8234 20.9478 16.9193 25.7058 14.9999 25.7058C13.0805 25.7058 11.1764 20.9478 11.1764 14.9999C11.1764 9.05206 13.0805 4.29406 14.9999 4.29406C16.9193 4.29406 18.8234 9.05206 18.8234 14.9999Z" fill="white"/>
<path d="M5.41818 7.83014L6.44288 6.69531C6.60602 6.84214 6.78088 6.98539 6.96747 7.12508C8.98324 8.63614 12.1644 9.55684 15.6316 9.55684C18.5879 9.55684 21.347 8.88849 23.3628 7.73684C23.8272 7.47398 24.266 7.1683 24.6735 6.82378L25.6676 7.98614C25.2108 8.37665 24.6959 8.73555 24.1229 9.06284C21.8639 10.3552 18.8434 11.0863 15.6316 11.0863C11.8539 11.0863 8.34853 10.0723 6.04982 8.34861C5.83165 8.18475 5.62089 8.01277 5.41818 7.83014ZM5.41818 22.1883L6.44288 23.32C6.60602 23.1722 6.78088 23.0294 6.96747 22.8918C8.98324 21.3807 12.1644 20.46 15.6316 20.46C18.5879 20.46 21.347 21.1268 23.3628 22.28C23.8542 22.5625 24.2911 22.8663 24.6735 23.1915L25.6676 22.0292C25.1874 21.6229 24.6702 21.2625 24.1229 20.9525C21.8639 19.6617 18.8434 18.9306 15.6316 18.9306C11.8539 18.9306 8.34853 19.9446 6.04982 21.6667C5.82551 21.835 5.61496 22.0098 5.41818 22.1883ZM2.76465 15.7647V14.2353H27.2352V15.7647H2.76465Z" fill="white"/>
</svg>
