<svg width="30" height="30" viewBox="0 0 30 30" fill="none" xmlns="http://www.w3.org/2000/svg">
<path d="M7.68408 4.12326L2.11498 17.5272C2.06025 17.6589 2.15704 17.8039 2.29967 17.8039H11.2579C11.4009 17.8039 11.4977 17.9495 11.4423 18.0813L8.23413 25.7226C8.17879 25.8544 8.27558 26 8.41853 26H22.1297C22.2113 26 22.2847 25.9504 22.3152 25.8747L27.8893 12.0394C27.9423 11.908 27.8455 11.7647 27.7038 11.7647H18.7349C18.5939 11.7647 18.4971 11.6226 18.5488 11.4914L21.3923 4.2733C21.444 4.14207 21.3473 4 21.2063 4H7.86877C7.78796 4 7.71509 4.04864 7.68408 4.12326Z" stroke="white" stroke-width="2"/>
</svg>
