<svg width="60" height="60" viewBox="0 0 60 60" fill="none" xmlns="http://www.w3.org/2000/svg">
<rect x="1.5" y="1.5" width="57" height="57" rx="28.5" stroke="white" stroke-width="3"/>
<path d="M16.25 29.1677C16.25 24.846 16.6819 22.6844 18.031 21.3422C19.3801 20 21.5527 20 25.8966 20H34.1034C38.4473 20 40.6185 20 41.969 21.3422C43.3195 22.6844 43.75 24.846 43.75 29.1677V30.8323C43.75 35.154 43.3181 37.3156 41.969 38.6578C40.6199 40 38.4473 40 34.1034 40H25.8966C21.5527 40 19.3801 40 18.031 38.6578C16.6819 37.3156 16.25 35.154 16.25 30.8323V29.1677Z" stroke="white" stroke-width="2" stroke-linecap="round" stroke-linejoin="round"/>
<path d="M33.3628 29.3184L27.5091 25.7471C27.3845 25.6711 27.2413 25.629 27.0945 25.6253C26.9476 25.6215 26.8024 25.6562 26.6739 25.7258C26.5454 25.7953 26.4383 25.8972 26.3638 26.0208C26.2892 26.1444 26.25 26.2853 26.25 26.4287V33.5726C26.2502 33.716 26.2897 33.8566 26.3643 33.98C26.4389 34.1035 26.546 34.2051 26.6745 34.2745C26.8029 34.3439 26.948 34.3785 27.0948 34.3747C27.2415 34.3709 27.3846 34.3288 27.5091 34.2529L33.3628 30.6816C33.4813 30.6094 33.579 30.5089 33.6467 30.3897C33.7145 30.2705 33.75 30.1364 33.75 30C33.75 29.8636 33.7145 29.7295 33.6467 29.6103C33.579 29.4911 33.4813 29.3906 33.3628 29.3184Z" stroke="white" stroke-width="2" stroke-linejoin="round"/>
</svg>
