<svg width="20" height="20" viewBox="0 0 20 20" fill="none" xmlns="http://www.w3.org/2000/svg">
<path d="M4.40476 20C3.88095 20 3.43254 19.8135 3.05952 19.4405C2.68651 19.0675 2.5 18.619 2.5 18.0952V8.57143C2.5 8.04762 2.68651 7.59921 3.05952 7.22619C3.43254 6.85317 3.88095 6.66667 4.40476 6.66667H5.35714V4.7619C5.35714 3.44444 5.82143 2.32143 6.75 1.39286C7.67857 0.464286 8.80159 0 10.119 0C11.4365 0 12.5595 0.464286 13.4881 1.39286C14.4167 2.32143 14.881 3.44444 14.881 4.7619V6.66667H15.8333C16.3571 6.66667 16.8056 6.85317 17.1786 7.22619C17.5516 7.59921 17.7381 8.04762 17.7381 8.57143V18.0952C17.7381 18.619 17.5516 19.0675 17.1786 19.4405C16.8056 19.8135 16.3571 20 15.8333 20H4.40476ZM4.40476 18.0952H15.8333V8.57143H4.40476V18.0952ZM10.119 15.2381C10.6429 15.2381 11.0913 15.0516 11.4643 14.6786C11.8373 14.3056 12.0238 13.8571 12.0238 13.3333C12.0238 12.8095 11.8373 12.3611 11.4643 11.9881C11.0913 11.6151 10.6429 11.4286 10.119 11.4286C9.59524 11.4286 9.14683 11.6151 8.77381 11.9881C8.40079 12.3611 8.21429 12.8095 8.21429 13.3333C8.21429 13.8571 8.40079 14.3056 8.77381 14.6786C9.14683 15.0516 9.59524 15.2381 10.119 15.2381ZM7.2619 6.66667H12.9762V4.7619C12.9762 3.96825 12.6984 3.29365 12.1429 2.7381C11.5873 2.18254 10.9127 1.90476 10.119 1.90476C9.3254 1.90476 8.65079 2.18254 8.09524 2.7381C7.53968 3.29365 7.2619 3.96825 7.2619 4.7619V6.66667Z" fill="#ADD131"/>
</svg>
